<mxfile host="app.diagrams.net" modified="2023-01-31T02:53:10.538Z" agent="5.0 (Windows NT 10.0; Win64; x64) AppleWebKit/537.36 (KHTML, like Gecko) Chrome/109.0.0.0 Safari/537.36" version="20.8.3" etag="BIPHITRSo1FeqWFhKSmH" type="github">
  <diagram id="4GTCcd6cyWXUHCtxeI8y" name="第 1 页">
    <mxGraphModel dx="1434" dy="764" grid="1" gridSize="10" guides="1" tooltips="1" connect="1" arrows="1" fold="1" page="1" pageScale="1" pageWidth="827" pageHeight="1169" math="0" shadow="0">
      <root>
        <mxCell id="0" />
        <mxCell id="1" parent="0" />
        <mxCell id="VqTXsrCZorRftCY8RWus-6" value="" style="swimlane;startSize=0;fillColor=#dae8fc;strokeColor=#6c8ebf;" vertex="1" parent="1">
          <mxGeometry x="300" y="380" width="280" height="100" as="geometry">
            <mxRectangle x="70" y="180" width="50" height="40" as="alternateBounds" />
          </mxGeometry>
        </mxCell>
        <mxCell id="VqTXsrCZorRftCY8RWus-8" value="管理版" style="whiteSpace=wrap;html=1;fillColor=#dae8fc;strokeColor=#6c8ebf;" vertex="1" parent="VqTXsrCZorRftCY8RWus-6">
          <mxGeometry x="20" y="50" width="70" height="30" as="geometry" />
        </mxCell>
        <mxCell id="VqTXsrCZorRftCY8RWus-9" value="融合网关" style="text;html=1;align=center;verticalAlign=middle;resizable=0;points=[];autosize=1;strokeColor=none;fillColor=none;" vertex="1" parent="VqTXsrCZorRftCY8RWus-6">
          <mxGeometry x="105" y="10" width="70" height="30" as="geometry" />
        </mxCell>
        <mxCell id="VqTXsrCZorRftCY8RWus-10" value="客服版" style="whiteSpace=wrap;html=1;fillColor=#dae8fc;strokeColor=#6c8ebf;" vertex="1" parent="VqTXsrCZorRftCY8RWus-6">
          <mxGeometry x="110" y="50" width="70" height="30" as="geometry" />
        </mxCell>
        <mxCell id="VqTXsrCZorRftCY8RWus-11" value="接口" style="whiteSpace=wrap;html=1;fillColor=#dae8fc;strokeColor=#6c8ebf;" vertex="1" parent="VqTXsrCZorRftCY8RWus-6">
          <mxGeometry x="190" y="50" width="70" height="30" as="geometry" />
        </mxCell>
        <mxCell id="VqTXsrCZorRftCY8RWus-13" value="" style="swimlane;startSize=0;fillColor=default;" vertex="1" parent="1">
          <mxGeometry x="700" y="160" width="270" height="100" as="geometry" />
        </mxCell>
        <mxCell id="VqTXsrCZorRftCY8RWus-14" value="HLR" style="text;html=1;align=center;verticalAlign=middle;resizable=0;points=[];autosize=1;strokeColor=none;fillColor=none;" vertex="1" parent="VqTXsrCZorRftCY8RWus-13">
          <mxGeometry x="110" width="50" height="30" as="geometry" />
        </mxCell>
        <mxCell id="VqTXsrCZorRftCY8RWus-15" value="华为" style="whiteSpace=wrap;html=1;fillColor=#dae8fc;strokeColor=#6c8ebf;" vertex="1" parent="VqTXsrCZorRftCY8RWus-13">
          <mxGeometry x="16" y="49" width="70" height="30" as="geometry" />
        </mxCell>
        <mxCell id="VqTXsrCZorRftCY8RWus-16" value="爱立信" style="whiteSpace=wrap;html=1;fillColor=#dae8fc;strokeColor=#6c8ebf;" vertex="1" parent="VqTXsrCZorRftCY8RWus-13">
          <mxGeometry x="96" y="49" width="70" height="30" as="geometry" />
        </mxCell>
        <mxCell id="VqTXsrCZorRftCY8RWus-17" value="UDM" style="whiteSpace=wrap;html=1;fillColor=#dae8fc;strokeColor=#6c8ebf;" vertex="1" parent="VqTXsrCZorRftCY8RWus-13">
          <mxGeometry x="186" y="49" width="70" height="30" as="geometry" />
        </mxCell>
        <mxCell id="VqTXsrCZorRftCY8RWus-18" value="" style="swimlane;startSize=0;fillColor=default;" vertex="1" parent="1">
          <mxGeometry x="700" y="290" width="370" height="100" as="geometry" />
        </mxCell>
        <mxCell id="VqTXsrCZorRftCY8RWus-19" value="公告" style="text;html=1;align=center;verticalAlign=middle;resizable=0;points=[];autosize=1;strokeColor=none;fillColor=none;" vertex="1" parent="VqTXsrCZorRftCY8RWus-18">
          <mxGeometry x="166" width="50" height="30" as="geometry" />
        </mxCell>
        <mxCell id="VqTXsrCZorRftCY8RWus-20" value="大面积无线公告" style="whiteSpace=wrap;html=1;fillColor=#dae8fc;strokeColor=#6c8ebf;" vertex="1" parent="VqTXsrCZorRftCY8RWus-18">
          <mxGeometry x="16" y="49" width="94" height="30" as="geometry" />
        </mxCell>
        <mxCell id="VqTXsrCZorRftCY8RWus-21" value="人工公告" style="whiteSpace=wrap;html=1;fillColor=#dae8fc;strokeColor=#6c8ebf;" vertex="1" parent="VqTXsrCZorRftCY8RWus-18">
          <mxGeometry x="120" y="49" width="70" height="30" as="geometry" />
        </mxCell>
        <mxCell id="VqTXsrCZorRftCY8RWus-22" value="群障公告" style="whiteSpace=wrap;html=1;fillColor=#dae8fc;strokeColor=#6c8ebf;" vertex="1" parent="VqTXsrCZorRftCY8RWus-18">
          <mxGeometry x="200" y="49" width="70" height="30" as="geometry" />
        </mxCell>
        <mxCell id="VqTXsrCZorRftCY8RWus-23" value="采集" style="whiteSpace=wrap;html=1;fillColor=#dae8fc;strokeColor=#6c8ebf;" vertex="1" parent="VqTXsrCZorRftCY8RWus-18">
          <mxGeometry x="280" y="49" width="70" height="30" as="geometry" />
        </mxCell>
        <mxCell id="VqTXsrCZorRftCY8RWus-24" value="" style="swimlane;startSize=0;fillColor=#dae8fc;strokeColor=#6c8ebf;" vertex="1" parent="1">
          <mxGeometry x="10" y="40" width="570" height="170" as="geometry">
            <mxRectangle x="70" y="180" width="50" height="40" as="alternateBounds" />
          </mxGeometry>
        </mxCell>
        <mxCell id="VqTXsrCZorRftCY8RWus-25" value="核心网HLR" style="whiteSpace=wrap;html=1;fillColor=#dae8fc;strokeColor=#6c8ebf;" vertex="1" parent="VqTXsrCZorRftCY8RWus-24">
          <mxGeometry x="20" y="50" width="70" height="30" as="geometry" />
        </mxCell>
        <mxCell id="VqTXsrCZorRftCY8RWus-26" value="WEB" style="text;html=1;align=center;verticalAlign=middle;resizable=0;points=[];autosize=1;strokeColor=none;fillColor=none;" vertex="1" parent="VqTXsrCZorRftCY8RWus-24">
          <mxGeometry x="290" y="10" width="50" height="30" as="geometry" />
        </mxCell>
        <mxCell id="VqTXsrCZorRftCY8RWus-27" value="弱覆盖管理" style="whiteSpace=wrap;html=1;fillColor=#dae8fc;strokeColor=#6c8ebf;" vertex="1" parent="VqTXsrCZorRftCY8RWus-24">
          <mxGeometry x="110" y="50" width="70" height="30" as="geometry" />
        </mxCell>
        <mxCell id="VqTXsrCZorRftCY8RWus-28" value="无线公告管理" style="whiteSpace=wrap;html=1;fillColor=#dae8fc;strokeColor=#6c8ebf;" vertex="1" parent="VqTXsrCZorRftCY8RWus-24">
          <mxGeometry x="190" y="50" width="80" height="30" as="geometry" />
        </mxCell>
        <mxCell id="VqTXsrCZorRftCY8RWus-29" value="文件共享" style="whiteSpace=wrap;html=1;fillColor=#dae8fc;strokeColor=#6c8ebf;" vertex="1" parent="VqTXsrCZorRftCY8RWus-24">
          <mxGeometry x="280" y="50" width="80" height="30" as="geometry" />
        </mxCell>
        <mxCell id="VqTXsrCZorRftCY8RWus-30" value="投诉关联打点" style="whiteSpace=wrap;html=1;fillColor=#dae8fc;strokeColor=#6c8ebf;" vertex="1" parent="VqTXsrCZorRftCY8RWus-24">
          <mxGeometry x="370" y="50" width="80" height="30" as="geometry" />
        </mxCell>
        <mxCell id="VqTXsrCZorRftCY8RWus-31" value="网络协同" style="whiteSpace=wrap;html=1;fillColor=#dae8fc;strokeColor=#6c8ebf;" vertex="1" parent="VqTXsrCZorRftCY8RWus-24">
          <mxGeometry x="460" y="50" width="80" height="30" as="geometry" />
        </mxCell>
        <mxCell id="VqTXsrCZorRftCY8RWus-32" value="系统管理日志" style="whiteSpace=wrap;html=1;fillColor=#dae8fc;strokeColor=#6c8ebf;" vertex="1" parent="VqTXsrCZorRftCY8RWus-24">
          <mxGeometry x="20" y="100" width="80" height="30" as="geometry" />
        </mxCell>
        <mxCell id="VqTXsrCZorRftCY8RWus-42" value="金库接口" style="whiteSpace=wrap;html=1;fillColor=#dae8fc;strokeColor=#6c8ebf;" vertex="1" parent="VqTXsrCZorRftCY8RWus-24">
          <mxGeometry x="110" y="100" width="80" height="30" as="geometry" />
        </mxCell>
        <mxCell id="VqTXsrCZorRftCY8RWus-43" value="日志上报" style="whiteSpace=wrap;html=1;fillColor=#dae8fc;strokeColor=#6c8ebf;" vertex="1" parent="VqTXsrCZorRftCY8RWus-24">
          <mxGeometry x="200" y="100" width="80" height="30" as="geometry" />
        </mxCell>
        <mxCell id="VqTXsrCZorRftCY8RWus-33" value="" style="swimlane;startSize=0;fillColor=#dae8fc;strokeColor=#6c8ebf;" vertex="1" parent="1">
          <mxGeometry x="10" y="240" width="570" height="100" as="geometry">
            <mxRectangle x="70" y="180" width="50" height="40" as="alternateBounds" />
          </mxGeometry>
        </mxCell>
        <mxCell id="VqTXsrCZorRftCY8RWus-34" value="核心控制器" style="whiteSpace=wrap;html=1;fillColor=#dae8fc;strokeColor=#6c8ebf;" vertex="1" parent="VqTXsrCZorRftCY8RWus-33">
          <mxGeometry x="20" y="50" width="70" height="30" as="geometry" />
        </mxCell>
        <mxCell id="VqTXsrCZorRftCY8RWus-35" value="检索平台" style="text;html=1;align=center;verticalAlign=middle;resizable=0;points=[];autosize=1;strokeColor=none;fillColor=none;" vertex="1" parent="VqTXsrCZorRftCY8RWus-33">
          <mxGeometry x="280" y="10" width="70" height="30" as="geometry" />
        </mxCell>
        <mxCell id="VqTXsrCZorRftCY8RWus-36" value="地物检索控制器" style="whiteSpace=wrap;html=1;fillColor=#dae8fc;strokeColor=#6c8ebf;" vertex="1" parent="VqTXsrCZorRftCY8RWus-33">
          <mxGeometry x="110" y="50" width="100" height="30" as="geometry" />
        </mxCell>
        <mxCell id="VqTXsrCZorRftCY8RWus-38" value="数据检索控制器" style="whiteSpace=wrap;html=1;fillColor=#dae8fc;strokeColor=#6c8ebf;" vertex="1" parent="VqTXsrCZorRftCY8RWus-33">
          <mxGeometry x="220" y="50" width="90" height="30" as="geometry" />
        </mxCell>
        <mxCell id="VqTXsrCZorRftCY8RWus-39" value="弱覆盖检索控制器" style="whiteSpace=wrap;html=1;fillColor=#dae8fc;strokeColor=#6c8ebf;" vertex="1" parent="VqTXsrCZorRftCY8RWus-33">
          <mxGeometry x="320" y="50" width="100" height="30" as="geometry" />
        </mxCell>
        <mxCell id="VqTXsrCZorRftCY8RWus-40" value="公告检索控制器" style="whiteSpace=wrap;html=1;fillColor=#dae8fc;strokeColor=#6c8ebf;" vertex="1" parent="VqTXsrCZorRftCY8RWus-33">
          <mxGeometry x="430" y="50" width="100" height="30" as="geometry" />
        </mxCell>
      </root>
    </mxGraphModel>
  </diagram>
</mxfile>
